<svg xmlns="http://www.w3.org/2000/svg" viewBox="0 0 36 36">
  <path fill="#C60A1D" d="M36 27a4 4 0 0 1-4 4H4a4 4 0 0 1-4-4V9a4 4 0 0 1 4-4h28a4 4 0 0 1 4 4v18z"/>
  <path fill="#FFC400" d="M0 12h36v12H0z"/>
  <g fill="#EA596E">
    <path d="M9 17v3a3 3 0 1 0 6 0v-3H9z"/>
  </g>
  <path fill="#F4A2B2" d="M12 16h3v3h-3z"/>
  <path fill="#DD2E44" d="M9 16h3v3H9z"/>
  <ellipse fill="#EA596E" cx="12" cy="14.5" rx="3" ry="1.5"/>
  <ellipse fill="#FFAC33" cx="12" cy="13.75" rx="3" ry=".75"/>
  <path fill="#99AAB5" d="M7 16h1v7H7zm9 0h1v7h-1z"/>
  <g fill="#66757F">
    <ellipse cx="12" cy="23" rx="5" ry="1"/>
    <ellipse cx="12" cy="22" rx="5" ry="1"/>
  </g>
</svg>
