<svg xmlns="http://www.w3.org/2000/svg" viewBox="0 0 36 36">
  <path fill="#009B3A" d="M36 27a4 4 0 0 1-4 4H4a4 4 0 0 1-4-4V9a4 4 0 0 1 4-4h28a4 4 0 0 1 4 4v18z"/>
  <path fill="#FEDF00" d="M32.728 18L18 29.124 3.272 18 18 6.875z"/>
  <circle fill="#002776" cx="18" cy="18" r="6"/>
  <path fill="#FFF" d="M12 18.111c2.636 0 5.201.798 7.333 2.035A10.73 10.73 0 0 0 12 21.778a10.73 10.73 0 0 0-7.333-1.632A11.91 11.91 0 0 1 12 18.111m0-2.222c-3.569 0-6.837 1.429-9.235 3.746a.556.556 0 0 0 .133.854 13.16 13.16 0 0 1 9.102 1.754 13.16 13.16 0 0 1 9.102-1.754.556.556 0 0 0 .133-.854A12.99 12.99 0 0 0 12 15.889z"/>
  <path fill="#FFF" d="M17.75 18.989s-.242-1.026-2.003-1.295c-1.761-.269-1.672 1.051-1.672 1.051s.136.832 1.819 1.123 1.856-.879 1.856-.879z"/>
</svg>
